<svg xmlns="http://www.w3.org/2000/svg" width="60" height="60" viewBox="0 0 60 60">
  <rect width="60" height="60" rx="4" fill="#013243"/>
  <g transform="translate(10 10) scale(1.67)">
    <path fill="#4DABC5" d="M10.315 4.876c-.506 0-.914.408-.914.914v8.064c0 .506.408.914.914.914h3.657c.506 0 .914-.408.914-.914V5.79a.914.914 0 0 0-.914-.914h-3.657z"/>
    <path fill="#fff" d="M6.658 4.876c-.506 0-.914.408-.914.914v8.064c0 .506.408.914.914.914h3.657c.506 0 .914-.408.914-.914V5.79a.914.914 0 0 0-.914-.914H6.658z"/>
    <path fill="#4DABC5" d="M3 4.876c-.506 0-.914.408-.914.914v8.064c0 .506.408.914.914.914h3.657c.506 0 .914-.408.914-.914V5.79a.914.914 0 0 0-.914-.914H3z"/>
  </g>
</svg>
