<svg xmlns="http://www.w3.org/2000/svg" width="60" height="60" viewBox="0 0 60 60">
  <rect width="60" height="60" rx="4" fill="#150458"/>
  <g transform="translate(8 14)">
    <path fill="#E70488" d="M20.265 18.153c-.314-.117-.656-.192-1.017-.192-.676 0-1.303.2-1.832.546a3.68 3.68 0 0 0-1.265 1.456 3.68 3.68 0 0 0-.19 1.165c0 .676.2 1.303.546 1.832a3.68 3.68 0 0 0 1.456 1.265c.37.09.756.135 1.165.19.676 0 1.303-.2 1.832-.546a3.68 3.68 0 0 0 1.265-1.456c.09-.37.135-.756.19-1.165 0-.676-.2-1.303-.546-1.832a3.68 3.68 0 0 0-1.456-1.265z"/>
    <path fill="#130754" d="M26.285 8.153h-8.57c-.676 0-1.303.2-1.832.546a3.68 3.68 0 0 0-1.265 1.456 3.68 3.68 0 0 0-.19 1.165v8.57c0 .676.2 1.303.546 1.832a3.68 3.68 0 0 0 1.456 1.265c.37.09.756.135 1.165.19h8.57c.676 0 1.303-.2 1.832-.546a3.68 3.68 0 0 0 1.265-1.456c.09-.37.135-.756.19-1.165v-8.57c0-.676-.2-1.303-.546-1.832a3.68 3.68 0 0 0-1.456-1.265 3.68 3.68 0 0 0-1.165-.19z"/>
    <path fill="#fff" d="M8.285 8.153H4.715c-.676 0-1.303.2-1.832.546A3.68 3.68 0 0 0 1.618 10.16a3.68 3.68 0 0 0-.19 1.165v8.57c0 .676.2 1.303.546 1.832a3.68 3.68 0 0 0 1.456 1.265c.37.09.756.135 1.165.19h3.57c.676 0 1.303-.2 1.832-.546a3.68 3.68 0 0 0 1.265-1.456c.09-.37.135-.756.19-1.165v-8.57c0-.676-.2-1.303-.546-1.832a3.68 3.68 0 0 0-1.456-1.265 3.68 3.68 0 0 0-1.165-.19z"/>
  </g>
</svg>
