<svg xmlns="http://www.w3.org/2000/svg" width="60" height="60" viewBox="0 0 60 60">
  <rect width="60" height="60" rx="4" fill="#3776AB"/>
  <g transform="translate(12 12) scale(1.5)">
    <path fill="#FFD43B" d="M14.25.18l.9.2.73.26.59.3.45.32.34.34.25.34.16.33.1.3.04.26.02.2-.01.13V8.5l-.05.63-.13.55-.21.46-.26.38-.3.31-.33.25-.35.19-.35.14-.33.1-.3.07-.26.04-.21.02H8.77l-.69.05-.59.14-.5.22-.41.27-.33.32-.27.35-.2.36-.15.37-.1.35-.07.32-.04.27-.02.21v3.06H3.17l-.21-.03-.28-.07-.32-.12-.35-.18-.36-.26-.36-.36-.35-.46-.32-.59-.28-.73-.21-.88-.14-1.05-.05-1.23.06-1.22.16-1.04.24-.87.32-.71.36-.57.4-.44.42-.33.42-.24.4-.16.36-.1.32-.05.24-.01h.16l.06.01h8.16v-.83H6.18l-.01-2.75-.02-.37.05-.34.11-.31.17-.28.25-.26.31-.23.38-.2.44-.18.51-.15.58-.12.64-.1.71-.06.77-.04.84-.02 1.27.05z"/>
    <path fill="#3776AB" d="M9.75 23.82l-.9-.2-.73-.26-.59-.3-.45-.32-.34-.34-.25-.34-.16-.33-.1-.27-.04-.21-.02-.15.01-.09V17.3h4.06v1.33H6.21l.01 2.05a5.01 5.01 0 002.33 1.52c.45.2.94.35 1.46.49.2.05.41.08.61.07.27 0 .53-.01.8-.01.17 0 .35-.03.52-.08a3.89 3.89 0 001.12-.4 3.39 3.39 0 00.92-.78 3.25 3.25 0 00.6-1.1 3.3 3.3 0 00.2-1.23v-2.18H4.28z"/>
  </g>
</svg>
